<svg xmlns="http://www.w3.org/2000/svg" width="107.86" height="35" viewBox="0 0 107.86 35"><rect class="svg__rect" x="0" y="0" width="51.05" height="35" fill="#EA4560"/><rect class="svg__rect" x="49.05" y="0" width="58.81" height="35" fill="#3BC4F3"/><path class="svg__text" d="M13.78 19.42L13.78 19.42L15.27 19.42Q15.27 20.15 15.75 20.55Q16.23 20.95 17.12 20.95L17.12 20.95Q17.90 20.95 18.29 20.63Q18.68 20.32 18.68 19.80L18.68 19.80Q18.68 19.24 18.28 18.94Q17.89 18.63 16.85 18.32Q15.82 18.01 15.21 17.63L15.21 17.63Q14.05 16.90 14.05 15.72L14.05 15.72Q14.05 14.69 14.89 14.02Q15.73 13.35 17.07 13.35L17.07 13.35Q17.96 13.35 18.66 13.68Q19.36 14.01 19.75 14.61Q20.15 15.22 20.15 15.96L20.15 15.96L18.68 15.96Q18.68 15.29 18.26 14.91Q17.84 14.54 17.06 14.54L17.06 14.54Q16.33 14.54 15.93 14.85Q15.53 15.16 15.53 15.71L15.53 15.71Q15.53 16.18 15.96 16.50Q16.40 16.81 17.39 17.10Q18.39 17.40 18.99 17.78Q19.60 18.16 19.88 18.65Q20.16 19.13 20.16 19.79L20.16 19.79Q20.16 20.86 19.34 21.49Q18.52 22.12 17.12 22.12L17.12 22.12Q16.20 22.12 15.42 21.77Q14.64 21.43 14.21 20.83Q13.78 20.22 13.78 19.42ZM24.18 18.19L24.18 18.19L24.18 17.39Q24.18 16.19 24.61 15.27Q25.03 14.35 25.83 13.85Q26.63 13.35 27.68 13.35L27.68 13.35Q29.09 13.35 29.96 14.12Q30.82 14.89 30.96 16.29L30.96 16.29L29.48 16.29Q29.38 15.37 28.94 14.96Q28.51 14.55 27.68 14.55L27.68 14.55Q26.72 14.55 26.20 15.26Q25.68 15.96 25.67 17.33L25.67 17.33L25.67 18.09Q25.67 19.47 26.16 20.20Q26.66 20.92 27.61 20.92L27.61 20.92Q28.48 20.92 28.92 20.53Q29.36 20.14 29.48 19.22L29.48 19.22L30.96 19.22Q30.83 20.59 29.95 21.35Q29.07 22.12 27.61 22.12L27.61 22.12Q26.59 22.12 25.82 21.63Q25.04 21.15 24.62 20.26Q24.20 19.37 24.18 18.19ZM36.83 22L35.36 22L35.36 13.47L36.83 13.47L36.83 22Z" fill="#000000"/><path class="svg__text" d="M62.81 17.80L62.81 17.80Q62.81 16.54 63.41 15.54Q64.01 14.55 65.06 13.99Q66.11 13.43 67.43 13.43L67.43 13.43Q68.58 13.43 69.50 13.84Q70.43 14.25 71.04 15.02L71.04 15.02L69.53 16.39Q68.72 15.40 67.55 15.40L67.55 15.40Q66.86 15.40 66.33 15.70Q65.80 16 65.50 16.54Q65.21 17.09 65.21 17.80L65.21 17.80Q65.21 18.51 65.50 19.05Q65.80 19.60 66.33 19.90Q66.86 20.20 67.55 20.20L67.55 20.20Q68.72 20.20 69.53 19.22L69.53 19.22L71.04 20.58Q70.43 21.35 69.51 21.76Q68.58 22.17 67.43 22.17L67.43 22.17Q66.11 22.17 65.06 21.61Q64.01 21.05 63.41 20.05Q62.81 19.06 62.81 17.80ZM77.96 22L75.58 22L75.58 13.60L79.42 13.60Q80.56 13.60 81.40 13.98Q82.24 14.35 82.70 15.06Q83.15 15.76 83.15 16.71L83.15 16.71Q83.15 17.66 82.70 18.35Q82.24 19.05 81.40 19.42Q80.56 19.80 79.42 19.80L79.42 19.80L77.96 19.80L77.96 22ZM77.96 15.47L77.96 17.93L79.27 17.93Q80.01 17.93 80.38 17.61Q80.75 17.29 80.75 16.71L80.75 16.71Q80.75 16.12 80.38 15.80Q80.01 15.47 79.27 15.47L79.27 15.47L77.96 15.47ZM90.03 18.95L86.83 13.60L89.34 13.60L91.33 16.94L93.32 13.60L95.62 13.60L92.41 18.99L92.41 22L90.03 22L90.03 18.95Z" fill="#FFFFFF" x="62.05"/></svg>